<?xml version="1.0" encoding="utf-8"?>
<!-- Generator: Adobe Illustrator 17.1.0, SVG Export Plug-In . SVG Version: 6.00 Build 0)  -->
<!DOCTYPE svg PUBLIC "-//W3C//DTD SVG 1.1//EN" "http://www.w3.org/Graphics/SVG/1.1/DTD/svg11.dtd">
<svg version="1.1" id="Layer_1" xmlns="http://www.w3.org/2000/svg" xmlns:xlink="http://www.w3.org/1999/xlink" x="0px" y="0px"
	 viewBox="0 0 362 1202" enable-background="new 0 0 362 1202" xml:space="preserve">
<path fill="#FFFFFF" d="M238.721,1080.51c-18.431-157.474-45.96-331.569-64.096-450.984
	c-15.71-106.655,38.902-180.048,38.902-180.048l-0.172-0.124c8.935-8.359,18.032-18.05,27.016-29.693
	c19.242-24.65,41.076-52.203,91.859-118.091l24.539-27.194c7.499-8.32,6.862-21.106-1.434-28.694
	c-8.374-7.467-21.172-6.853-28.71,1.527l-51.622,57.076c-40.089,38.777-54.746-0.645-58.637-6.689l0.32-260.319
	c-0.004-11.221-9.049-20.305-20.299-20.284c-11.271-0.078-20.392,9.028-20.372,20.277l-0.315,183.883
	c-5.997-5.003-11.862-9.038-17.777-12.408l0.209-188.421C158.182,9.068,149.053,0.034,137.772,0
	c-11.165-0.029-20.26,9.062-20.317,20.244L117.18,195.91c-6.072-0.394-11.991-0.281-17.827,0.342l0.241-162.514
	c-0.069-11.331-9.083-20.36-20.447-20.344c-11.111-0.062-20.244,9.089-20.372,20.277l-0.098,175.522
	c-6.831,3.578-12.835,7.409-17.928,10.953l0.183-125.291c0.05-11.254-9.083-20.36-20.271-20.3
	C9.439,74.559,0.269,83.583,0.273,94.804L0.054,260.409c0.054,0.341,0.055,0.715-0.054,1.155
	c0.029,17.679,6.322,124.526,39.893,169.838c22.416,48.792,3.629,45.559,13.59,122.296l0.082,0.138
	c-18.914,88.801-34.62,325.347-35.431,438.444C17.72,1045.695,21.019,1127,32.491,1202H240.87
	C244.122,1167,244.08,1126.584,238.721,1080.51z"/>
</svg>
